<svg aria-hidden="true" style="position: absolute; width: 0; height: 0; overflow: hidden;" version="1.1" xmlns="http://www.w3.org/2000/svg" xmlns:xlink="http://www.w3.org/1999/xlink">
<defs>

<symbol id="logo" viewBox="0 0 40 32">
<path d="M37.0025 0.690915C33.2628 0.903512 25.8298 1.67734 21.2412 4.49101C20.9245 4.68515 20.745 5.03037 20.745 5.39131V30.2652C20.745 31.0548 21.6069 31.5538 22.3337 31.1874C27.0547 28.8071 33.8824 28.1577 37.2584 27.98C38.411 27.9191 39.307 26.9936 39.307 25.8841V2.78955C39.3077 1.5789 38.2595 0.619821 37.0025 0.690915ZM18.0658 4.49101C13.4779 1.67734 6.04492 0.904196 2.30523 0.690915C1.04821 0.619821 0 1.5789 0 2.78955V25.8848C0 26.9949 0.896024 27.9205 2.04864 27.9807C5.42596 28.1584 12.257 28.8085 16.9781 31.1901C17.7028 31.5559 18.562 31.0575 18.562 30.27V5.379C18.562 5.01738 18.3832 4.68584 18.0658 4.49101Z" />
</symbol>

<symbol id="arrow" viewBox="0 0 9 19">
<path d="M7.88555 10.0977L3.1043 14.879C2.77383 15.2094 2.23945 15.2094 1.9125 14.879L1.11797 14.0844C0.7875 13.754 0.7875 13.2196 1.11797 12.8926L4.50703 9.50356L1.11797 6.1145C0.7875 5.78403 0.7875 5.24966 1.11797 4.92271L1.90898 4.12114C2.23945 3.79067 2.77383 3.79067 3.10078 4.12114L7.88203 8.90239C8.21602 9.23286 8.21602 9.76724 7.88555 10.0977Z" />
</symbol>

<symbol id="warning" viewBox="0 0 16 15">
<path d="M13 11.04C13 11.352 12.8929 11.59 12.6788 11.754C12.4647 11.918 12.2019 12 11.8904 12H1.10961C0.798143 12 0.53534 11.916 0.321204 11.748C0.107068 11.58 0 11.344 0 11.04C0 10.8 0.0700809 10.556 0.210243 10.308L5.59479 0.66C5.85175 0.22 6.15544 0 6.50584 0C6.85624 0 7.15214 0.22 7.39353 0.66L12.7898 10.32C12.9299 10.576 13 10.816 13 11.04ZM7.31177 4.908V3.156H5.68823V4.908C5.68823 5.02 5.69602 5.126 5.71159 5.226C5.72716 5.326 5.74858 5.438 5.77583 5.562C5.80308 5.686 5.8245 5.792 5.84007 5.88L6.14376 7.824H6.83288L7.14825 5.88C7.16382 5.8 7.18718 5.696 7.21833 5.568C7.24948 5.44 7.27284 5.326 7.28841 5.226C7.30398 5.126 7.31177 5.02 7.31177 4.908ZM7.31177 9.552C7.31177 9.32 7.23196 9.124 7.07233 8.964C6.9127 8.804 6.71998 8.724 6.49416 8.724C6.27613 8.724 6.0873 8.804 5.92767 8.964C5.76804 9.124 5.68823 9.32 5.68823 9.552C5.68823 9.784 5.76804 9.982 5.92767 10.146C6.0873 10.31 6.27613 10.392 6.49416 10.392C6.71998 10.392 6.9127 10.31 7.07233 10.146C7.23196 9.982 7.31177 9.784 7.31177 9.552Z" />
</symbol>

</defs>
</svg>