<svg aria-hidden="true" style="position: absolute; width: 0; height: 0; overflow: hidden;" version="1.1" xmlns="http://www.w3.org/2000/svg" xmlns:xlink="http://www.w3.org/1999/xlink">
<defs>

<symbol id="logo" viewBox="0 0 40 32">
<path d="M37.0025 0.690915C33.2628 0.903512 25.8298 1.67734 21.2412 4.49101C20.9245 4.68515 20.745 5.03037 20.745 5.39131V30.2652C20.745 31.0548 21.6069 31.5538 22.3337 31.1874C27.0547 28.8071 33.8824 28.1577 37.2584 27.98C38.411 27.9191 39.307 26.9936 39.307 25.8841V2.78955C39.3077 1.5789 38.2595 0.619821 37.0025 0.690915ZM18.0658 4.49101C13.4779 1.67734 6.04492 0.904196 2.30523 0.690915C1.04821 0.619821 0 1.5789 0 2.78955V25.8848C0 26.9949 0.896024 27.9205 2.04864 27.9807C5.42596 28.1584 12.257 28.8085 16.9781 31.1901C17.7028 31.5559 18.562 31.0575 18.562 30.27V5.379C18.562 5.01738 18.3832 4.68584 18.0658 4.49101Z" />
</symbol>

<symbol id="arrow" viewBox="0 0 9 19">
<path d="M7.88555 10.0977L3.1043 14.879C2.77383 15.2094 2.23945 15.2094 1.9125 14.879L1.11797 14.0844C0.7875 13.754 0.7875 13.2196 1.11797 12.8926L4.50703 9.50356L1.11797 6.1145C0.7875 5.78403 0.7875 5.24966 1.11797 4.92271L1.90898 4.12114C2.23945 3.79067 2.77383 3.79067 3.10078 4.12114L7.88203 8.90239C8.21602 9.23286 8.21602 9.76724 7.88555 10.0977Z" />
</symbol>

</defs>
</svg>